<?xml version="1.0" standalone="no"?>
<!DOCTYPE svg PUBLIC "-//W3C//DTD SVG 20010904//EN"
 "http://www.w3.org/TR/2001/REC-SVG-20010904/DTD/svg10.dtd">
<svg version="1.0" xmlns="http://www.w3.org/2000/svg"
 width="1" height="1" viewBox="0 0 900.000000 900.000000"
 preserveAspectRatio="xMidYMid meet">

<g transform="translate(0.000000,900.000000) scale(0.100000,-0.100000)"
fill="#FF0000" stroke="none">
<path d="M3653 8645 c-12 -8 -36 -41 -54 -73 -18 -31 -44 -70 -58 -85 -14 -15
-26 -40 -27 -55 -1 -15 -3 -30 -3 -34 -1 -4 -10 -12 -22 -18 -19 -10 -20 -10
-10 9 6 11 11 31 11 45 0 21 -5 26 -23 26 -27 0 -54 -27 -92 -92 -29 -51 -85
-101 -85 -76 0 8 4 18 9 24 17 18 52 86 47 92 -10 10 -42 -27 -86 -100 -39
-66 -64 -91 -277 -268 -308 -257 -282 -234 -477 -399 -94 -79 -247 -208 -341
-286 -93 -79 -278 -234 -410 -345 -132 -111 -271 -227 -308 -258 -38 -31 -91
-75 -117 -97 -73 -61 -299 -251 -356 -300 -28 -25 -75 -63 -103 -86 -65 -51
-116 -151 -107 -210 6 -37 -6 -200 -23 -324 -6 -38 -15 -117 -21 -175 -17
-178 -40 -391 -50 -475 -6 -44 -17 -152 -25 -240 -9 -88 -20 -194 -25 -235
-10 -76 -48 -432 -75 -705 -8 -82 -19 -186 -25 -230 -10 -88 -25 -225 -40
-380 -6 -55 -15 -143 -20 -195 -6 -52 -17 -160 -26 -240 -8 -80 -19 -183 -25
-230 -5 -47 -16 -150 -24 -230 -8 -80 -20 -188 -25 -240 -54 -491 -57 -530
-37 -530 8 0 17 -6 19 -12 4 -12 29 -14 250 -17 l37 -1 -40 -75 c-26 -48 -39
-85 -37 -103 l3 -27 79 2 c47 1 91 7 110 17 17 8 44 18 59 21 21 4 40 25 81
87 29 45 51 89 49 98 -4 14 8 16 104 15 59 -1 116 -5 126 -10 10 -4 23 -2 32
5 9 8 34 10 72 6 32 -3 162 -5 288 -6 165 0 261 -5 341 -17 l112 -17 8 -50 c8
-44 12 -51 34 -54 14 -2 32 -10 40 -17 20 -18 326 -25 355 -9 11 7 39 16 63
22 48 11 43 15 122 -101 26 -38 44 -47 101 -47 27 0 41 -6 51 -22 14 -21 25
-23 169 -30 85 -3 223 -7 306 -7 140 -1 155 1 173 19 13 13 40 21 85 26 57 6
65 5 65 -10 0 -10 -14 -31 -30 -48 -38 -37 -31 -52 8 -16 15 14 38 29 52 33
l25 7 -27 -26 c-16 -15 -28 -33 -28 -42 0 -16 -46 -38 -61 -29 -14 9 -50 -30
-44 -47 4 -9 0 -18 -9 -21 -9 -4 -16 -11 -16 -17 0 -15 28 -12 37 4 8 14 63
34 63 22 0 -7 -50 -98 -60 -110 -5 -4 -16 -3 -27 3 -15 9 -16 10 -2 11 20 0
49 41 49 67 -1 13 -5 11 -15 -9 -11 -19 -26 -29 -51 -34 -50 -9 -61 -42 -33
-100 11 -25 30 -49 40 -55 10 -5 19 -18 19 -28 0 -9 10 -27 23 -39 21 -20 34
-22 141 -22 93 0 124 -4 149 -17 28 -16 62 -18 302 -17 760 4 968 12 1019 43
37 22 95 28 431 41 138 6 291 12 340 15 154 8 558 25 608 25 l47 0 -16 -25
c-13 -20 -15 -39 -10 -86 7 -67 39 -118 110 -170 l39 -28 -32 -18 c-62 -34
-67 -39 -53 -56 12 -14 20 -12 70 11 54 25 60 25 142 15 47 -6 112 -21 145
-33 72 -26 201 -60 232 -60 12 0 119 45 237 100 316 147 440 191 626 221 139
22 152 38 119 145 -11 36 -19 67 -17 69 2 2 77 8 168 15 171 12 243 28 260 60
12 22 12 94 0 130 -7 21 -8 19 -9 -17 -1 -36 -4 -43 -20 -43 -17 0 -19 5 -14
33 6 39 -13 118 -28 114 -6 -1 -15 5 -19 13 -5 8 -21 38 -37 65 -30 50 -38 97
-73 385 -6 47 -13 95 -16 108 -5 16 -2 22 9 22 20 0 66 -55 73 -88 19 -87 24
-65 9 41 -12 86 -25 125 -25 74 0 -42 -12 -32 -47 36 -30 58 -60 181 -51 209
6 17 75 -80 82 -116 3 -16 8 -27 10 -25 6 6 -22 171 -30 178 -4 3 -4 -6 0 -21
11 -46 -11 -32 -41 25 -30 55 -65 195 -52 203 8 4 60 -66 72 -96 3 -8 6 -1 6
16 1 17 -8 43 -19 57 -60 76 -110 255 -81 291 12 14 10 37 -10 129 -6 31 -9
60 -5 64 13 13 28 -16 33 -61 3 -25 10 -46 16 -46 6 0 7 17 4 45 -7 45 -1 55
20 34 24 -24 101 172 127 320 9 52 16 115 16 141 0 26 16 116 34 201 41 183
54 278 63 460 l6 135 -28 26 c-39 37 -30 58 35 83 48 18 57 26 68 60 13 41 27
142 16 115 -19 -42 -27 -66 -26 -71 1 -4 -7 -5 -17 -2 -24 6 -36 -14 -21 -32
10 -12 10 -15 -2 -15 -28 0 -233 61 -245 73 -22 23 -63 182 -79 306 l-17 125
28 23 c28 25 55 27 63 6 2 -8 -6 -13 -22 -13 -28 0 -35 -17 -11 -26 12 -5 15
-28 15 -119 0 -63 4 -124 9 -137 7 -19 33 -32 129 -66 67 -23 130 -42 141 -42
32 0 38 25 34 129 -3 72 -1 92 7 79 6 -10 12 -58 13 -108 1 -49 5 -90 10 -90
4 0 7 40 7 89 0 81 -2 92 -25 119 -13 16 -29 41 -34 55 -7 18 -30 36 -69 56
-32 16 -66 41 -76 55 -48 75 -218 210 -296 238 -18 6 -32 19 -34 31 -5 22 -10
292 -22 1057 -3 212 -7 391 -9 398 -3 6 -10 12 -17 12 -9 0 -9 -3 0 -12 15
-15 16 -31 0 -22 -7 4 -8 3 -4 -4 8 -13 -1 -28 -47 -82 -27 -31 -32 -33 -85
-31 -31 1 -79 4 -107 6 -27 3 -147 12 -265 20 -118 8 -271 20 -340 26 -69 7
-135 12 -147 13 -12 1 -26 6 -30 11 -4 6 -4 7 1 3 4 -4 18 -3 31 2 14 5 26 5
33 -2 14 -14 43 -2 36 15 -3 8 2 20 11 27 8 7 15 17 15 23 0 5 -8 3 -18 -6
-15 -14 -19 -14 -19 -3 0 8 3 14 6 13 3 -1 6 3 6 8 0 6 -3 9 -7 8 -13 -5 -9 4
9 18 9 8 14 9 10 3 -8 -13 16 -37 26 -27 10 9 9 25 -1 19 -4 -2 -8 5 -9 17 0
12 1 16 4 9 3 -6 9 -10 14 -6 5 3 9 -3 10 -13 1 -10 2 -30 3 -45 2 -16 -1 -25
-7 -21 -6 3 -7 1 -3 -6 6 -9 11 -9 24 1 13 11 15 11 10 -4 -4 -9 0 -24 8 -35
14 -17 15 -17 5 3 -6 12 -8 24 -5 26 2 3 -2 18 -11 34 -21 40 -19 63 4 61 12
-1 17 -6 14 -15 -5 -11 -7 -11 -14 0 -16 24 -9 -2 8 -35 9 -18 16 -35 15 -39
-1 -5 1 -7 6 -5 4 1 7 -2 7 -8 0 -5 -3 -9 -7 -8 -13 5 -9 -4 10 -18 9 -7 14
-9 10 -5 -4 5 -3 15 3 22 7 8 7 14 -1 19 -8 5 -8 10 0 20 8 9 8 15 0 20 -5 3
-10 11 -10 17 0 6 11 1 25 -12 19 -18 22 -27 14 -41 -5 -11 -7 -19 -3 -19 3 0
1 -6 -5 -13 -8 -10 -7 -14 3 -14 8 0 13 7 11 16 -3 22 14 53 26 45 6 -4 5 -12
-3 -22 -9 -12 -6 -11 10 2 22 19 30 32 12 21 -5 -3 -16 7 -25 22 -15 27 -15
27 -9 3 6 -22 5 -23 -9 -12 -9 8 -15 19 -13 25 1 7 1 9 -1 4 -3 -4 -9 -4 -14
-1 -6 3 -5 11 2 20 8 10 15 11 24 4 10 -8 15 -8 21 1 4 7 3 9 -4 5 -6 -3 -14
-2 -17 4 -5 8 -11 8 -20 0 -7 -6 -15 -7 -17 -3 -3 4 -4 4 -3 -2 1 -5 -6 -19
-16 -29 -11 -11 -19 -14 -19 -8 0 6 5 14 10 17 6 3 10 12 10 19 0 9 -23 16
-72 21 -40 5 -76 9 -80 10 -5 2 -29 4 -55 5 -42 3 -44 4 -13 7 19 2 248 -14
509 -36 261 -22 477 -39 479 -36 9 8 -51 15 -408 45 -201 16 -556 46 -790 65
-849 71 -1342 114 -1345 117 -3 3 -11 75 -40 393 -31 334 -31 335 -75 452 -23
61 -51 120 -63 131 -12 10 -159 103 -327 206 -168 103 -312 191 -320 196 -8 5
-127 78 -265 163 -340 209 -329 203 -359 187 -22 -11 -29 -10 -58 7 -18 11
-94 57 -168 102 -74 44 -137 81 -140 81 -3 0 -15 -7 -27 -15z m411 -1150 c3
-127 8 -268 11 -315 8 -128 14 -310 20 -560 3 -124 7 -293 11 -377 l5 -152
-87 -83 c-48 -46 -100 -96 -116 -112 -16 -16 -31 -27 -33 -25 -7 8 -24 512
-30 884 -3 209 -8 473 -11 586 l-6 205 74 60 c40 32 75 61 78 64 11 12 75 59
77 57 1 -1 4 -106 7 -232z m-1515 -777 c-5 -10 -14 -18 -19 -18 -6 0 -13 0
-17 0 -8 0 -12 19 -7 31 2 3 14 5 28 5 21 0 23 -3 15 -18z m-119 -104 c0 -19
-14 -18 -31 3 -10 11 -10 14 -1 9 7 -4 12 -2 12 4 0 6 5 8 10 5 6 -3 10 -13
10 -21z m4563 -21 c-7 -2 -19 -2 -25 0 -7 3 -2 5 12 5 14 0 19 -2 13 -5z m176
-36 c-2 -2 -11 -8 -20 -15 -12 -9 -16 -9 -16 1 0 7 9 14 20 14 11 1 18 1 16 0z
m-4901 -28 c-2 -6 -8 -10 -13 -10 -5 0 -11 4 -13 10 -2 6 4 11 13 11 9 0 15
-5 13 -11z m-123 -18 c-9 -8 -36 -10 -30 -2 2 4 11 8 20 8 8 0 13 -3 10 -6z
m4982 -6 c0 -8 -4 -12 -9 -9 -5 3 -6 10 -3 15 9 13 12 11 12 -6z m-5552 -5
c-3 -5 -10 -10 -16 -10 -5 0 -9 5 -9 10 0 6 7 10 16 10 8 0 12 -4 9 -10z
m5706 -13 c-1 -12 -15 -9 -19 4 -3 6 1 10 8 8 6 -3 11 -8 11 -12z m-5590 -40
c-13 -13 -26 -3 -16 12 3 6 11 8 17 5 6 -4 6 -10 -1 -17z m179 -5 c0 -13 -12
-22 -22 -16 -10 6 -1 24 13 24 5 0 9 -4 9 -8z m5747 -127 c94 -3 179 -8 190
-10 10 -2 42 -4 71 -4 l53 -1 -2 -172 c-1 -95 -3 -166 -6 -158 -3 8 -7 22 -10
30 -3 8 -5 25 -4 38 1 12 -3 22 -9 22 -6 0 -8 -4 -5 -10 3 -5 2 -18 -4 -27 -8
-14 -9 -11 -6 15 2 20 -1 32 -8 32 -9 0 -9 2 0 8 8 5 7 12 -4 27 -14 18 -15
18 -9 1 3 -10 1 -25 -5 -32 -8 -10 -8 -14 0 -14 6 0 11 -5 11 -11 0 -5 -5 -7
-12 -3 -8 5 -9 2 -5 -9 7 -19 6 -20 -17 -11 -9 3 -13 11 -9 17 4 6 -4 8 -23 3
-20 -5 -25 -4 -14 3 8 6 11 13 7 17 -4 4 1 13 11 21 9 8 11 12 5 8 -7 -3 -13
-1 -13 4 0 6 7 11 15 11 18 0 20 -26 3 -33 -10 -4 -9 -8 2 -16 8 -6 17 -11 20
-11 7 0 6 62 -1 75 -3 6 -4 20 -3 32 0 12 -2 20 -7 17 -4 -2 -6 -11 -3 -18 3
-7 -2 -19 -11 -26 -13 -11 -19 -10 -35 5 -11 10 -20 14 -20 9 0 -5 -6 2 -13
16 -8 14 -19 24 -26 22 -6 -1 -20 2 -31 8 -15 8 -18 6 -15 -8 2 -9 4 -19 4
-22 1 -3 5 1 10 9 6 9 8 4 8 -17 -1 -17 -5 -28 -10 -25 -4 2 -5 8 -2 13 3 4
-3 14 -12 21 -14 12 -15 11 -9 -9 11 -32 0 -27 -18 9 -13 26 -13 29 -1 19 8
-7 15 -11 16 -9 7 37 7 39 -17 35 -21 -4 -23 -2 -14 14 7 13 7 21 0 25 -6 4
-8 10 -5 15 10 17 -14 20 -30 4 -15 -15 -15 -14 -9 11 6 25 5 28 -15 22 -11
-3 -21 -2 -21 1 0 4 -24 8 -53 10 -28 2 -56 8 -62 14 -7 7 -7 9 0 5 6 -3 87
-8 182 -12z m-49 -45 c-15 -24 -25 -26 -25 -5 0 8 4 12 8 9 4 -2 10 0 14 6 3
5 8 10 11 10 2 0 -1 -9 -8 -20z m51 -24 c9 -10 7 -17 -6 -27 -11 -9 -14 -10
-9 -1 4 6 3 12 -3 12 -6 0 -8 7 -5 15 7 18 9 18 23 1z m-5123 -17 c8 -14 -18
-31 -30 -19 -9 9 0 30 14 30 5 0 12 -5 16 -11z m-128 -48 c-4 -12 -134 -118
-162 -133 l-21 -11 21 24 c12 13 36 47 54 74 18 28 42 60 53 73 l20 22 19 -20
c11 -12 18 -25 16 -29z m5260 -12 c10 -13 9 -19 -5 -30 -16 -13 -17 -12 -4 3
11 15 11 19 -3 24 -9 3 -13 10 -10 16 3 5 7 8 8 6 1 -2 7 -10 14 -19z m-38 5
c0 -8 -19 -13 -24 -6 -3 5 1 9 9 9 8 0 15 -2 15 -3z m147 -11 c-4 -3 -2 -12 4
-20 7 -8 8 -13 1 -13 -5 0 -15 6 -21 13 -11 14 -5 27 12 27 6 0 7 -3 4 -7z
m44 -76 c-6 -15 -13 -27 -16 -27 -4 0 -3 5 0 10 4 6 2 17 -4 24 -6 7 -8 21 -5
31 6 14 9 15 21 3 10 -11 11 -21 4 -41z m-91 13 c0 -4 -7 -11 -16 -14 -13 -5
-14 -4 -6 7 7 8 8 18 4 22 -4 5 -1 5 6 1 6 -4 12 -11 12 -16z m44 -2 c-3 -4
-12 -8 -20 -8 -8 0 -13 4 -10 8 3 5 12 9 20 9 8 0 13 -4 10 -9z m-6560 -20
c-3 -7 -17 -22 -32 -33 l-26 -19 22 32 c23 31 46 44 36 20z m6576 9 c0 -2 -10
-12 -22 -23 l-23 -19 19 23 c18 21 26 27 26 19z m5 -37 c3 -5 1 -10 -4 -10 -6
0 -11 5 -11 10 0 6 2 10 4 10 3 0 8 -4 11 -10z m-6653 -52 c-7 -7 -13 -21 -13
-32 -1 -17 -2 -17 -6 -4 -5 19 15 63 25 54 3 -4 0 -12 -6 -18z m6773 2 c3 -6
-1 -7 -9 -4 -18 7 -21 14 -7 14 6 0 13 -4 16 -10z m-6925 -40 c-24 -46 -35
-52 -26 -12 6 22 30 52 43 52 2 0 -6 -18 -17 -40z m6960 -4 c14 -18 14 -18 -7
-6 -12 8 -19 18 -16 23 3 4 6 7 7 5 1 -2 8 -12 16 -22z m-6839 -53 c-4 -28 -6
-32 -9 -15 -3 22 3 52 11 52 1 0 1 -17 -2 -37z m479 13 c0 -3 -4 -8 -10 -11
-5 -3 -10 -1 -10 4 0 6 5 11 10 11 6 0 10 -2 10 -4z m-625 -65 c0 -22 -3 -37
-7 -35 -14 9 -8 74 6 74 1 0 1 -18 1 -39z m-119 -99 c-12 -11 -18 7 -10 30 l8
23 4 -23 c2 -13 1 -26 -2 -30z m136 8 c6 -37 -8 -27 -18 14 -4 19 -3 27 3 23
6 -4 13 -20 15 -37z m-99 -115 c6 -17 4 -17 -13 4 -11 13 -20 33 -20 45 0 20
1 19 13 -4 7 -14 16 -34 20 -45z m-13 -197 c0 -4 -7 -5 -14 -2 -20 8 -67 70
-59 78 6 6 72 -63 73 -76z m119 -57 c9 -6 10 -11 2 -15 -6 -4 -11 -3 -11 3 0
6 -7 8 -15 5 -8 -4 -15 -1 -15 5 0 13 20 14 39 2z m-112 -106 c19 -16 23 -24
13 -25 -19 0 -60 28 -60 41 0 16 18 10 47 -16z m196 -52 c-7 -2 -21 -2 -30 0
-10 3 -4 5 12 5 17 0 24 -2 18 -5z m-16 -156 c6 2 14 0 17 -5 9 -14 -55 -24
-70 -11 -23 19 -16 28 14 20 15 -4 32 -6 39 -4z m1653 -186 c0 -8 -53 -32 -69
-31 -5 1 59 38 67 40 1 0 2 -4 2 -9z m5812 -175 c54 -26 100 -52 103 -56 3 -5
-34 7 -82 25 -48 19 -89 33 -91 30 -10 -10 13 -24 92 -56 87 -35 101 -45 86
-69 -7 -11 -24 -8 -90 17 -44 17 -79 26 -77 19 2 -6 40 -24 85 -41 53 -19 84
-36 88 -48 8 -27 -5 -87 -19 -87 -7 0 -52 13 -102 29 l-90 29 -7 44 c-9 60
-10 220 0 216 4 -2 51 -25 104 -52z m-317 -346 c22 -94 30 -108 60 -116 18 -4
25 -13 25 -30 0 -21 -4 -23 -23 -19 -31 8 -41 -7 -56 -85 -23 -117 -31 -92
-31 91 0 95 -3 192 -6 214 -11 67 12 28 31 -55z m135 -180 c0 -5 -5 -10 -11
-10 -5 0 -7 5 -4 10 3 6 8 10 11 10 2 0 4 -4 4 -10z m70 -40 c110 -31 125 -40
63 -36 -35 2 -53 0 -53 -8 0 -6 -4 -5 -9 3 -5 8 -19 16 -31 18 -32 5 -19 -20
16 -31 57 -17 85 -29 80 -33 -5 -6 -158 28 -167 36 -4 3 -10 25 -14 49 -7 41
-6 42 17 33 12 -5 57 -19 98 -31z m-1167 -137 c71 -15 77 -18 77 -41 0 -24 -1
-24 -56 -17 -31 4 -86 14 -122 24 -55 14 -68 21 -70 39 -3 20 -1 21 45 16 26
-3 83 -13 126 -21z m-3783 7 c0 -5 -5 -10 -11 -10 -5 0 -7 5 -4 10 3 6 8 10
11 10 2 0 4 -4 4 -10z m-1233 -192 c-2 -13 -4 -3 -4 22 0 25 2 35 4 23 2 -13
2 -33 0 -45z m4883 -18 c0 -5 -4 -10 -8 -10 -5 0 -22 -11 -38 -25 -16 -14 -33
-25 -39 -25 -11 0 66 69 78 70 4 0 7 -4 7 -10z m-5221 -61 c-8 -5 -20 -9 -27
-9 -7 0 -20 -7 -28 -15 -17 -17 -44 -20 -44 -6 0 10 69 37 83 33 4 -1 7 3 7 9
0 5 5 7 11 3 8 -4 7 -9 -2 -15z m164 -23 c33 -24 35 -35 5 -28 -13 2 -36 20
-53 40 -29 34 -29 35 -5 22 14 -7 37 -22 53 -34z m307 29 c0 -11 -55 -58 -77
-66 -29 -11 -153 -1 -153 12 0 5 6 9 13 10 6 0 32 10 57 22 29 15 66 23 103
24 31 1 57 0 57 -2z m220 -15 c0 -5 -4 -10 -10 -10 -5 0 -10 5 -10 10 0 6 5
10 10 10 6 0 10 -4 10 -10z m4373 -15 c-10 -13 -24 -25 -30 -25 -18 0 -16 6 9
30 30 28 43 25 21 -5z m807 -6 c-19 -12 -59 -42 -88 -67 -51 -44 -84 -56 -39
-14 31 29 140 102 152 102 6 0 -6 -10 -25 -21z m-732 -1 c-3 -7 -15 -15 -28
-16 -21 -3 -22 -2 -11 12 16 19 44 21 39 4z m369 -30 c-3 -8 -6 -5 -6 6 -1 11
2 17 5 13 3 -3 4 -12 1 -19z m-5660 -14 c41 -24 46 -24 67 -10 26 17 156 32
156 18 0 -21 -113 -67 -159 -66 -30 1 -50 -4 -57 -14 -7 -10 -42 -17 -113 -23
-57 -5 -107 -7 -112 -3 -18 10 -9 26 12 21 11 -3 54 6 96 21 65 23 72 28 57
39 -10 7 -32 11 -51 9 -42 -6 -43 11 0 23 49 14 57 13 104 -15z m5714 3 c-10
-9 -11 -8 -5 6 3 10 9 15 12 12 3 -3 0 -11 -7 -18z m164 -27 c-16 -16 -31 -28
-34 -25 -2 3 8 19 24 35 16 16 31 28 34 25 2 -3 -8 -19 -24 -35z m-117 -11
c-3 -8 -7 -3 -11 10 -4 17 -3 21 5 13 5 -5 8 -16 6 -23z m-288 -21 c0 -49 -5
-47 -13 5 -3 20 -2 37 4 37 5 0 9 -19 9 -42z m-3713 -18 c-4 -27 -17 -38 -17
-13 0 18 8 33 17 33 1 0 2 -9 0 -20z m4067 -8 c-6 -4 -18 -18 -27 -32 -9 -13
-17 -20 -17 -14 0 16 41 66 48 59 4 -3 2 -9 -4 -13z m41 -2 c-3 -5 -11 -10
-16 -10 -6 0 -7 5 -4 10 3 6 11 10 16 10 6 0 7 -4 4 -10z m-5920 -40 c3 -5 -1
-10 -10 -10 -9 0 -13 5 -10 10 3 6 8 10 10 10 2 0 7 -4 10 -10z m6722 -31 c-8
-5 -22 -6 -31 -3 -27 11 -17 21 15 16 24 -4 28 -7 16 -13z m-887 7 c0 -3 -4
-8 -10 -11 -5 -3 -10 -1 -10 4 0 6 5 11 10 11 6 0 10 -2 10 -4z m-600 -22 c0
-2 -7 -4 -15 -4 -8 0 -15 4 -15 10 0 5 7 7 15 4 8 -4 15 -8 15 -10z m1486 -31
c-2 -2 -16 -1 -32 3 -25 6 -26 8 -9 14 18 7 51 -7 41 -17z m-7210 -32 c-4 -6
-20 -11 -37 -11 -23 0 -29 -4 -29 -21 0 -15 5 -19 15 -15 9 3 15 0 15 -10 0
-8 -6 -17 -14 -20 -8 -3 -16 -14 -19 -25 -10 -38 -27 -19 -27 29 0 41 5 55 33
85 31 34 33 34 51 17 10 -10 15 -23 12 -29z m6270 -13 c-19 -27 -21 -19 -4 18
7 14 14 21 16 15 2 -6 -4 -21 -12 -33z m939 3 c-3 -2 -21 -10 -41 -17 -26 -9
-34 -9 -31 0 2 6 17 13 33 15 28 4 28 4 5 10 -14 4 -26 12 -29 19 -3 9 7 7 32
-5 20 -9 33 -19 31 -22z m-4871 14 c3 -8 1 -15 -4 -15 -6 0 -10 7 -10 15 0 8
2 15 4 15 2 0 6 -7 10 -15z m3623 -21 c-3 -3 -12 -4 -19 -1 -8 3 -5 6 6 6 11
1 17 -2 13 -5z m288 -44 c-3 -5 -11 -10 -16 -10 -6 0 -7 5 -4 10 3 6 11 10 16
10 6 0 7 -4 4 -10z m955 -4 c0 -8 -4 -18 -10 -21 -6 -3 -7 1 -4 9 4 11 0 16
-10 16 -9 0 -16 -7 -16 -15 0 -9 -9 -15 -22 -14 -19 1 -19 2 -5 6 11 3 16 11
13 19 -4 10 3 14 24 14 19 0 30 -5 30 -14z m-6662 -46 c-16 -69 -17 -70 -28
-70 -5 0 -10 18 -10 40 0 33 -3 40 -20 40 -35 0 -21 17 23 27 23 5 43 9 44 9
1 -1 -3 -21 -9 -46z m4552 9 c0 -28 -3 -31 -25 -27 -14 3 -28 1 -31 -3 -3 -5
-17 -9 -31 -9 -18 0 -24 4 -20 15 4 8 2 17 -3 20 -6 4 -10 -2 -10 -12 0 -12
-12 -23 -33 -31 -42 -15 -50 -15 -40 0 4 7 7 22 8 33 0 15 7 20 25 20 14 0 30
3 35 6 6 4 27 6 48 5 21 -1 41 2 43 6 13 21 34 6 34 -23z m855 21 c3 -5 -1
-10 -9 -10 -9 0 -16 5 -16 10 0 6 4 10 9 10 6 0 13 -4 16 -10z m1235 -38 c0
-4 -16 -6 -36 -4 -34 4 -36 3 -31 -17 3 -11 1 -19 -4 -15 -5 3 -9 14 -9 25 0
16 7 19 40 19 22 0 40 -4 40 -8z m-4840 -28 c0 -8 -4 -14 -10 -14 -5 0 -10 9
-10 21 0 11 5 17 10 14 6 -3 10 -13 10 -21z m-2047 -2 c-6 -4 -13 -22 -16 -41
-7 -39 -24 -62 -31 -40 -2 8 -7 28 -10 45 -4 28 -2 32 27 41 33 10 50 7 30 -5z
m5899 -15 c-7 -8 -10 -17 -7 -21 3 -3 0 -2 -7 3 -8 8 -8 14 2 26 7 8 15 13 18
10 3 -2 0 -11 -6 -18z m-5828 -35 c-4 -15 -13 -34 -21 -42 -13 -13 -14 -10 -7
25 8 48 13 57 25 50 5 -4 6 -18 3 -33z m5242 -34 c29 -154 102 -313 200 -433
24 -30 44 -57 44 -59 0 -3 -25 -8 -55 -11 -30 -4 -55 -11 -55 -16 0 -5 4 -9 8
-9 5 0 17 -7 28 -15 11 -9 1 -7 -24 5 -47 23 -39 24 -337 -26 -49 -9 -137 -22
-195 -30 -58 -7 -124 -17 -146 -20 -26 -4 -44 -2 -48 5 -4 6 -1 11 8 11 9 0
16 4 16 9 0 10 -16 16 -71 25 l-36 6 -6 68 c-4 37 -11 144 -17 237 -5 94 -11
186 -12 205 l-3 35 245 31 c135 17 274 36 310 42 36 5 81 9 99 8 35 -1 35 -1
47 -68z m1540 52 c31 0 31 0 20 -34 -6 -19 -15 -32 -20 -29 -5 3 -6 1 -3 -4 4
-6 0 -31 -9 -57 -11 -33 -21 -46 -35 -46 -10 0 -19 5 -19 10 0 6 5 10 10 10 6
0 10 9 10 20 0 11 4 20 9 20 5 0 11 12 14 26 3 20 0 28 -14 31 -11 3 -19 12
-19 20 0 11 8 14 30 11 17 -3 33 -1 36 4 3 4 -13 8 -34 8 -27 0 -42 -5 -46
-16 -10 -27 -7 -46 12 -60 16 -13 16 -13 -3 -14 -11 0 -28 -9 -38 -20 -21 -25
-21 -30 -2 -30 8 0 15 -5 15 -11 0 -6 -10 -9 -22 -7 -13 2 -22 8 -21 13 2 6
15 45 30 88 24 67 31 77 48 73 11 -3 34 -6 51 -6z m-7132 -72 c-13 -73 -27
-76 -29 -8 -1 32 2 40 17 40 14 0 16 -6 12 -32z m92 6 c-3 -9 -6 -21 -6 -28 0
-7 -7 -21 -15 -32 -14 -18 -15 -16 -9 21 8 47 12 55 26 55 5 0 7 -7 4 -16z
m334 2 c0 -2 -7 -9 -15 -16 -13 -11 -14 -10 -9 4 5 14 24 23 24 12z m-260 -75
c0 -6 -4 -13 -10 -16 -5 -3 -10 1 -10 9 0 9 5 16 10 16 6 0 10 -4 10 -9z
m6871 -288 c6 -15 11 -59 12 -98 l2 -70 -60 -13 c-33 -7 -132 -26 -220 -42
-249 -47 -281 -54 -296 -66 -8 -6 -59 -19 -114 -28 -55 -10 -104 -19 -110 -20
-5 -2 -28 -6 -50 -10 -73 -14 -75 -16 -69 -41 3 -12 1 -26 -5 -29 -7 -5 -11 4
-11 23 0 37 -19 44 -85 32 -28 -5 -53 -7 -57 -5 -12 8 -6 163 6 173 6 5 25 11
41 14 17 3 62 13 100 22 39 8 95 20 125 25 30 5 109 21 175 36 66 14 176 36
245 50 69 13 148 29 175 35 70 16 168 37 178 38 4 1 12 -11 18 -26z m-1345
-168 c18 -13 18 -14 -4 -8 -12 3 -25 9 -28 14 -8 14 10 11 32 -6z m1244 -66
c0 -6 -5 -20 -11 -31 -11 -20 -10 -21 35 -15 36 5 46 4 46 -8 0 -8 -14 -17
-35 -21 -35 -6 -44 -17 -25 -29 6 -4 7 -11 4 -17 -4 -6 -2 -8 4 -4 6 3 13 2
17 -3 9 -15 -32 -33 -68 -29 -31 3 -32 4 -39 63 -3 33 -7 65 -8 70 -6 28 2 35
40 35 22 0 40 -5 40 -11z m-1220 -27 c0 -24 -99 -50 -111 -30 -11 18 8 36 44
41 64 8 67 7 67 -11z m1034 -71 c2 -39 0 -68 -4 -66 -10 6 -23 123 -15 136 12
18 16 3 19 -70z m-1266 37 c-6 -18 -67 -58 -88 -58 -19 0 -34 26 -24 41 3 5
17 9 32 9 15 0 34 5 42 10 21 14 42 12 38 -2z m367 2 c3 -5 1 -10 -4 -10 -6 0
-11 5 -11 10 0 6 2 10 4 10 3 0 8 -4 11 -10z m725 2 c0 -5 -3 -12 -7 -16 -8
-7 -6 -68 3 -98 3 -10 12 -18 20 -18 24 0 16 -17 -11 -22 -35 -7 -43 8 -46 80
-2 46 1 66 12 73 18 11 29 11 29 1z m-147 -94 c-8 -84 -13 -86 -13 -5 0 37 4
67 9 67 5 0 7 -28 4 -62z m-1192 25 c-7 -28 -31 -40 -83 -42 -29 -1 -41 26
-15 33 9 2 96 32 104 35 1 1 -2 -11 -6 -26z m1428 13 c9 -10 8 -16 -3 -25 -20
-16 -50 -10 -54 11 -3 14 7 21 39 27 4 0 12 -5 18 -13z m-416 -80 c2 -46 -1
-66 -10 -66 -13 0 -15 41 -6 103 7 54 13 41 16 -37z m83 -1 c-17 -26 -36 -33
-36 -14 0 6 10 25 22 42 19 26 23 29 26 14 2 -10 -4 -29 -12 -42z m-486 25 c0
-11 -4 -20 -10 -20 -5 0 -10 9 -10 20 0 11 5 20 10 20 6 0 10 -9 10 -20z
m-910 0 c0 -5 -9 -15 -20 -22 -11 -7 -20 -21 -20 -31 0 -18 -26 -34 -38 -23
-3 4 -1 15 5 25 14 23 5 35 -14 20 -10 -9 -13 -8 -13 5 0 10 8 16 23 16 12 0
29 5 37 10 20 13 40 13 40 0z m1145 -56 c0 -24 -6 -28 -50 -40 -55 -14 -68 -8
-63 27 2 19 9 24 35 25 18 0 36 3 39 7 18 17 40 6 39 -19z m-1372 -4 c-4 -14
-14 -20 -37 -21 -25 0 -27 -2 -11 -8 19 -8 19 -8 -2 -19 -32 -17 -35 -15 -31
21 3 29 7 33 43 38 22 3 41 7 42 8 0 0 -1 -8 -4 -19z m1083 5 c-16 -17 -36
-20 -36 -6 0 8 17 16 43 20 5 0 2 -6 -7 -14z m48 -9 c-3 -8 -13 -17 -22 -21
-13 -5 -13 -2 3 15 21 24 26 25 19 6z m282 -33 c-11 -11 -19 6 -11 24 8 17 8
17 12 0 3 -10 2 -21 -1 -24z m842 8 c-21 -28 -8 -42 18 -20 12 10 18 9 31 -4
24 -23 1 -49 -36 -40 -26 6 -26 6 -7 -16 11 -11 15 -21 11 -21 -5 0 -1 -6 10
-13 16 -13 14 -15 -25 -25 -65 -16 -76 -6 -84 78 -3 39 -4 76 -1 81 4 5 28 8
55 7 l48 -2 -20 -25z m-2448 -8 c-1 -22 -20 -35 -41 -30 -13 3 -29 1 -36 -5
-8 -6 -16 -8 -20 -4 -11 10 12 27 49 36 45 11 48 11 48 3z m1017 -18 c0 -8 -3
-13 -6 -11 -3 2 -14 6 -24 9 -10 4 -16 11 -13 16 9 13 43 2 43 -14z m161 13
c-3 -7 -18 -16 -34 -19 -17 -3 -28 -11 -26 -18 4 -17 -18 -42 -30 -35 -5 3 -6
14 -3 24 3 11 0 20 -10 24 -26 10 -8 24 31 24 19 0 38 3 41 6 11 11 35 6 31
-6z m39 -10 c-3 -8 -6 -5 -6 6 -1 11 2 17 5 13 3 -3 4 -12 1 -19z m-681 -4
c-3 -9 -6 -24 -6 -33 0 -10 -22 -37 -49 -59 -47 -40 -50 -41 -67 -25 -16 17
-15 18 21 25 47 10 65 24 65 50 0 25 18 58 31 58 6 0 8 -7 5 -16z m1718 -21
c7 -47 8 -118 1 -111 -9 9 -22 148 -14 148 3 0 9 -17 13 -37z m-154 9 c0 -4
-6 -14 -12 -21 -11 -11 -6 -12 30 -7 53 8 69 -15 31 -46 l-24 -19 38 7 c22 4
37 2 37 -4 0 -19 -30 -34 -75 -35 -38 -2 -43 -4 -29 -14 15 -11 13 -13 -11
-19 -14 -3 -30 -3 -35 2 -4 5 -11 44 -15 87 l-7 77 36 0 c20 0 36 -4 36 -8z
m-2307 -8 c9 -9 -43 -74 -59 -74 -8 0 -14 7 -14 15 0 8 8 15 18 15 13 0 14 2
3 9 -7 5 -10 14 -7 20 4 6 11 9 16 6 5 -3 11 -1 15 5 7 11 19 13 28 4z m165
-16 c-3 -7 -13 -15 -24 -17 -16 -3 -17 -1 -5 13 16 19 34 21 29 4z m822 2 c0
-5 -9 -14 -19 -19 -14 -8 -22 -7 -31 3 -11 14 -10 15 43 25 4 0 7 -3 7 -9z
m380 0 c0 -5 -7 -10 -16 -10 -8 0 -12 5 -9 10 3 6 10 10 16 10 5 0 9 -4 9 -10z
m55 -9 c3 -5 1 -12 -5 -16 -5 -3 -10 1 -10 9 0 18 6 21 15 7z m706 -58 c1 -35
-1 -66 -4 -70 -4 -3 -7 27 -7 67 0 88 7 90 11 3z m-1011 48 c0 -10 -54 -31
-81 -31 -35 0 -19 19 24 28 57 13 57 13 57 3z m833 -31 c-3 -11 -9 -20 -14
-20 -5 0 -9 9 -9 20 0 11 6 20 14 20 9 0 12 -7 9 -20z m-2233 -14 c0 -8 -13
-16 -30 -18 -20 -3 -30 0 -30 8 0 11 9 15 53 23 4 0 7 -5 7 -13z m1137 -8 c-2
-7 -13 -13 -25 -13 -11 0 -24 -4 -28 -8 -12 -12 -24 -8 -24 7 0 9 13 16 33 19
17 2 36 5 40 5 5 1 7 -4 4 -10z m673 3 c0 -6 -4 -13 -10 -16 -5 -3 -10 1 -10
9 0 9 5 16 10 16 6 0 10 -4 10 -9z m290 -12 c0 -5 -4 -9 -10 -9 -5 0 -10 7
-10 16 0 8 5 12 10 9 6 -3 10 -10 10 -16z m210 1 c8 -15 6 -21 -9 -30 -11 -5
-29 -10 -40 -10 -29 0 -28 38 2 50 32 13 35 12 47 -10z m44 11 c8 -13 -4 -42
-15 -35 -12 7 -12 44 0 44 6 0 12 -4 15 -9z m-2192 -33 c-11 -11 -32 -3 -32
12 0 12 34 18 39 7 2 -5 -1 -13 -7 -19z m-324 0 c-5 -14 -58 -23 -58 -9 0 8
13 13 53 20 5 0 7 -4 5 -11z m147 -9 c-8 -12 -35 -12 -35 0 0 11 22 20 33 14
4 -2 5 -9 2 -14z m1815 -15 c0 -8 -4 -14 -10 -14 -5 0 -10 9 -10 21 0 11 5 17
10 14 6 -3 10 -13 10 -21z m220 18 c0 -5 -9 -17 -20 -27 -28 -25 -25 -36 6
-25 34 13 44 13 44 -4 0 -9 -19 -15 -56 -20 -52 -6 -86 1 -56 11 17 7 42 32
42 44 0 6 -4 8 -9 4 -5 -3 -12 -1 -15 4 -4 5 2 12 11 14 31 8 53 7 53 -1z
m210 -41 c7 -24 6 -31 -6 -31 -10 0 -14 12 -14 37 0 42 7 40 20 -6z m-2550 9
c0 -11 -4 -20 -10 -20 -5 0 -10 -7 -10 -15 0 -8 -7 -15 -15 -15 -22 0 -20 57
3 63 30 8 32 7 32 -13z m2407 -32 c-2 -13 -4 -5 -4 17 -1 22 1 32 4 23 2 -10
2 -28 0 -40z m-2277 33 c0 -12 -20 -25 -27 -18 -7 7 6 27 18 27 5 0 9 -4 9 -9z
m910 5 c0 -14 -63 -64 -74 -60 -15 6 -29 43 -18 45 33 4 67 11 71 15 6 5 21 5
21 0z m-580 -30 c0 -14 -11 -36 -24 -50 -32 -35 -49 -34 -30 2 7 15 14 34 14
43 0 19 9 29 27 29 7 0 13 -11 13 -24z m361 1 c-12 -12 -45 -1 -37 12 3 5 15
7 27 4 13 -4 17 -9 10 -16z m1162 -8 c-5 -5 -19 -10 -33 -12 -13 -2 -26 -10
-28 -17 -3 -9 3 -11 22 -6 38 9 32 -1 -11 -19 -41 -17 -75 -13 -55 7 17 17 15
28 -3 22 -9 -4 -15 0 -15 8 0 10 18 18 58 24 59 10 80 8 65 -7z m1303 2 c-12
-13 -14 -21 -6 -26 8 -5 8 -11 0 -19 -7 -10 -3 -24 16 -52 15 -21 31 -42 37
-46 16 -10 -37 -28 -83 -28 -45 0 -45 0 -55 112 -6 74 -6 75 69 77 38 1 39 0
22 -18z m-3436 -6 c0 -8 -7 -15 -16 -15 -11 0 -14 -6 -9 -20 5 -14 2 -20 -9
-20 -10 0 -16 9 -16 25 0 22 15 36 48 44 1 1 2 -6 2 -14z m1890 -5 c0 -5 -4
-10 -10 -10 -5 0 -10 5 -10 10 0 6 5 10 10 10 6 0 10 -4 10 -10z m366 -38
c-11 -10 -15 4 -8 28 l7 25 3 -23 c2 -13 1 -26 -2 -30z m-1486 25 c0 -21 -12
-28 -27 -16 -19 16 -16 29 7 29 11 0 20 -6 20 -13z m98 -32 c1 -26 -3 -35 -14
-35 -12 0 -15 6 -10 25 6 23 4 25 -19 19 -15 -4 -25 -2 -25 4 0 9 18 16 56 21
6 0 11 -15 12 -34z m1289 13 c-3 -8 -6 -5 -6 6 -1 11 2 17 5 13 3 -3 4 -12 1
-19z m1081 -83 l0 -50 -9 40 c-4 22 -8 58 -7 80 0 38 1 39 8 10 4 -16 8 -52 8
-80z m-1795 81 c3 -8 4 -22 2 -33 -2 -10 -7 -35 -10 -55 -5 -35 -27 -68 -44
-68 -10 0 -11 62 -1 75 4 6 11 26 15 45 4 19 9 38 12 43 7 12 20 8 26 -7z
m-1667 -31 c-9 -7 -16 -17 -16 -24 0 -6 -7 -11 -16 -11 -27 0 -13 53 16 60 30
7 40 -8 16 -25z m3296 19 c-12 -8 -22 -23 -22 -32 0 -13 2 -14 9 -4 5 8 23 12
47 10 37 -3 39 -4 38 -38 0 -32 -3 -35 -34 -40 -38 -6 -54 -30 -20 -30 12 0
18 -4 15 -10 -9 -15 -95 -13 -95 3 0 6 -2 43 -3 80 -2 37 -1 70 2 72 2 3 23 5
45 5 39 0 40 0 18 -16z m416 -7 c2 -11 -3 -17 -17 -17 -23 0 -35 15 -26 31 10
15 39 6 43 -14z m-1640 -12 c-7 -8 -33 -15 -58 -17 -35 -2 -45 0 -45 12 0 11
11 15 42 15 23 0 45 3 49 7 4 4 11 5 16 2 6 -4 4 -12 -4 -19z m-2188 -10 c0
-9 -7 -18 -15 -21 -8 -4 -15 -15 -15 -26 0 -29 -24 -16 -28 15 -3 21 2 29 20
36 33 14 38 13 38 -4z m3231 -35 c1 -27 2 -59 2 -70 1 -11 -2 -20 -7 -20 -4 0
-8 31 -9 70 -1 39 1 70 6 70 4 0 8 -22 8 -50z m-2496 20 c-3 -5 -10 -10 -16
-10 -5 0 -9 5 -9 10 0 6 7 10 16 10 8 0 12 -4 9 -10z m235 0 c0 -5 -2 -10 -4
-10 -3 0 -8 5 -11 10 -3 6 -1 10 4 10 6 0 11 -4 11 -10z m37 4 c-3 -3 -12 -4
-19 -1 -8 3 -5 6 6 6 11 1 17 -2 13 -5z m928 -17 c-7 -16 -82 -40 -97 -31 -16
10 14 34 41 34 14 0 33 4 41 10 18 11 22 8 15 -13z m1120 14 c3 -5 1 -12 -5
-16 -5 -3 -10 -33 -10 -66 0 -49 3 -59 18 -60 13 0 12 -3 -6 -11 -14 -7 -26
-8 -32 -2 -14 14 0 164 16 164 7 0 15 -4 19 -9z m-3194 -34 c-6 -6 -11 -19
-11 -28 0 -25 -25 -30 -38 -8 -10 16 -10 21 3 25 12 5 13 10 5 19 -9 11 -5 14
17 17 31 3 41 -8 24 -25z m959 17 c0 -12 -48 -29 -58 -20 -2 3 1 12 7 20 14
17 51 17 51 0z m-725 -14 c-3 -5 -18 -10 -33 -9 l-27 1 25 8 c35 11 42 11 35
0z m155 -18 c0 -30 -16 -52 -37 -52 -16 0 -17 21 -1 55 15 34 38 32 38 -3z
m2650 -9 c0 -43 -5 -41 -13 5 -4 18 -2 32 3 32 6 0 10 -16 10 -37z m-2340 17
c0 -5 -4 -10 -10 -10 -5 0 -10 5 -10 10 0 6 5 10 10 10 6 0 10 -4 10 -10z
m2588 -12 c-2 -17 -11 -24 -32 -26 -33 -4 -51 10 -43 32 4 11 19 16 42 16 32
0 36 -3 33 -22z m-3400 5 c-2 -5 -10 -21 -18 -38 -15 -30 -28 -45 -43 -45 -5
0 -5 5 -1 12 4 7 9 23 10 37 2 13 9 28 16 32 16 11 41 12 36 2z m887 -20 c-24
-17 -45 -17 -45 1 0 8 10 16 23 18 32 6 43 -3 22 -19z m855 2 c0 -14 -6 -25
-14 -25 -9 0 -12 8 -8 25 2 14 8 25 13 25 5 0 9 -11 9 -25z m-1557 -2 c-7 -2
-19 -2 -25 0 -7 3 -2 5 12 5 14 0 19 -2 13 -5z m467 -3 c0 -5 -4 -10 -10 -10
-5 0 -10 5 -10 10 0 6 5 10 10 10 6 0 10 -4 10 -10z m2426 -12 c5 -16 1 -27
-16 -40 -12 -10 -28 -18 -36 -18 -23 0 -16 47 8 64 30 21 35 20 44 -6z m-2346
4 c0 -10 -60 -36 -67 -28 -11 11 19 36 43 36 13 0 24 -3 24 -8z m-670 -16 c0
-2 -7 -6 -15 -10 -8 -3 -15 -1 -15 4 0 6 7 10 15 10 8 0 15 -2 15 -4z m1403
-27 c-3 -12 -9 -17 -15 -11 -10 10 0 44 12 37 5 -3 6 -14 3 -26z m342 21 c9
-15 -16 -43 -27 -32 -10 10 0 42 12 42 5 0 12 -5 15 -10z m-2034 -17 c-21 -37
-50 -67 -57 -61 -4 4 -2 14 4 21 7 8 8 17 4 21 -8 9 26 36 45 36 10 0 11 -5 4
-17z m139 -9 c0 -8 -7 -14 -15 -14 -8 0 -15 2 -15 4 0 2 -3 11 -6 19 -4 12 0
14 15 10 12 -3 21 -12 21 -19z m668 14 c-6 -18 -58 -30 -58 -13 0 15 15 23 43
24 10 1 17 -4 15 -11z m2572 -18 c0 -16 -4 -30 -10 -30 -5 0 -8 13 -7 30 3 39
17 39 17 0z m-2750 -9 c0 -22 -15 -35 -30 -26 -7 4 -7 13 0 26 14 25 30 25 30
0z m1320 0 c0 -19 -17 -38 -25 -29 -7 7 7 48 16 48 5 0 9 -9 9 -19z m1087 -28
c-4 -17 -4 -17 -12 0 -4 9 -4 25 0 35 8 16 8 16 12 0 3 -10 3 -26 0 -35z
m-2096 23 c-6 -8 -21 -16 -32 -19 -24 -6 -19 1 13 19 31 16 32 16 19 0z m579
-1 c0 -8 -4 -15 -10 -15 -5 0 -10 7 -10 15 0 8 5 15 10 15 6 0 10 -7 10 -15z
m693 -32 c-8 -60 -26 -116 -40 -120 -13 -5 -25 51 -13 55 5 2 14 28 21 58 16
70 42 76 32 7z m-1697 21 c-3 -9 -6 -18 -6 -20 0 -2 -7 -4 -15 -4 -11 0 -13
-7 -9 -28 5 -24 1 -30 -31 -45 -21 -10 -40 -16 -42 -13 -8 8 7 26 23 26 8 0
14 9 14 20 0 11 5 20 11 20 8 0 7 5 -1 15 -15 18 -6 30 25 38 35 8 37 7 31 -9z
m-392 -29 c-7 -16 -19 -31 -28 -33 -9 -2 -16 -8 -16 -13 0 -12 6 -11 30 3 10
7 22 10 25 7 10 -11 -7 -38 -27 -45 -14 -4 -17 -9 -9 -13 18 -12 3 -36 -30
-48 -27 -10 -30 -10 -27 5 3 9 9 16 15 15 7 -2 10 14 8 44 -4 60 19 111 50
109 20 -1 21 -3 9 -31z m1613 1 c-4 -9 -11 -16 -17 -16 -11 0 -14 33 -3 44 11
10 26 -11 20 -28z m936 27 c-7 -2 -19 -2 -25 0 -7 3 -2 5 12 5 14 0 19 -2 13
-5z m1627 -10 c2 -2 -6 -6 -18 -9 l-21 -6 21 -17 c17 -15 19 -21 9 -39 -8 -14
-8 -22 -1 -22 5 0 10 -10 9 -22 0 -22 -1 -22 -9 -3 -5 11 -9 16 -10 10 -11
-80 -13 -75 28 -75 20 0 53 4 71 10 40 11 50 6 35 -18 -6 -9 -35 -21 -68 -28
-56 -11 -84 -24 -54 -24 10 0 16 -9 16 -22 1 -35 8 -67 15 -74 12 -13 8 -36
-5 -28 -9 5 -9 2 1 -9 7 -9 10 -17 6 -17 -4 0 -2 -6 4 -13 6 -8 8 -17 4 -20
-3 -4 0 -13 7 -22 10 -12 9 -16 -6 -22 -27 -11 -92 -9 -103 2 -11 12 -20 83
-26 203 -2 48 -7 128 -11 179 l-6 91 28 4 c28 4 74 -1 84 -9z m-3910 -3 c0 -5
-4 -10 -9 -10 -5 0 -11 -17 -14 -38 -5 -27 -14 -42 -36 -55 -33 -19 -51 -22
-51 -7 0 5 11 12 24 16 32 8 41 33 19 49 -20 15 -20 16 22 38 35 19 45 21 45
7z m400 6 c0 -12 -33 -36 -48 -35 -12 0 -11 3 6 9 12 5 22 14 22 20 0 5 5 10
10 10 6 0 10 -2 10 -4z m884 -18 c-8 -28 -12 -33 -20 -25 -9 8 6 47 17 47 6 0
7 -10 3 -22z m939 15 c-7 -2 -21 -2 -30 0 -10 3 -4 5 12 5 17 0 24 -2 18 -5z
m285 -9 c42 -29 22 -89 -43 -122 -18 -9 -117 -23 -270 -37 -33 -3 -96 -12
-139 -19 -110 -20 -147 -3 -132 59 12 47 47 58 286 94 41 7 86 14 100 17 115
25 171 27 198 8z m-448 -15 c-14 -4 -41 -7 -60 -7 -32 0 -31 1 15 13 50 12 91
7 45 -6z m737 -1 c-3 -8 -6 -5 -6 6 -1 11 2 17 5 13 3 -3 4 -12 1 -19z m-2547
2 c0 -13 -58 -42 -73 -37 -7 3 0 9 15 15 14 6 29 16 33 21 8 14 25 14 25 1z
m-387 -24 c-10 -14 -29 -27 -43 -29 l-25 -4 23 -8 c28 -9 24 -25 -11 -45 -30
-17 -43 -10 -29 17 6 10 15 31 21 46 10 26 39 45 69 46 9 1 8 -6 -5 -23z
m1077 15 c0 -11 -39 -25 -47 -18 -3 3 -2 10 2 16 8 13 45 15 45 2z m1702 -43
c-4 -53 -22 -66 -22 -17 0 27 18 76 24 67 1 -1 1 -24 -2 -50z m1039 40 c0 -7
2 -41 6 -75 3 -43 1 -63 -6 -63 -7 0 -11 23 -11 59 0 33 -3 66 -6 75 -3 9 -1
16 5 16 6 0 11 -6 12 -12z m-2579 -20 c-7 -7 -12 -8 -12 -2 0 14 12 26 19 19
2 -3 -1 -11 -7 -17z m2396 16 c19 -5 20 -8 8 -18 -20 -15 -33 -80 -15 -74 8 3
14 15 14 29 0 21 5 24 44 27 42 3 43 2 39 -22 -4 -20 -1 -26 13 -26 10 0 21
-5 24 -10 8 -13 -39 -31 -90 -35 -22 -2 -42 -4 -44 -4 -3 -1 4 -7 15 -15 18
-14 18 -15 -9 -21 -40 -10 -48 3 -50 81 -2 90 4 100 51 88z m-2748 -13 c0 -5
-3 -16 -6 -25 -8 -20 -44 -21 -44 -2 0 20 17 29 23 14 3 -8 6 -6 6 5 1 17 21
25 21 8z m2580 -32 c0 -6 -4 -7 -10 -4 -5 3 -10 11 -10 16 0 6 5 7 10 4 6 -3
10 -11 10 -16z m-3785 1 c-3 -5 -12 -10 -18 -10 -7 0 -6 4 3 10 19 12 23 12
15 0z m76 -19 c-12 -16 -21 -36 -21 -45 0 -22 -48 -52 -62 -38 -7 7 -4 18 11
38 11 15 21 33 21 41 0 13 32 31 58 32 9 1 7 -8 -7 -28z m943 4 c-4 -8 -8 -15
-10 -15 -2 0 -4 7 -4 15 0 8 4 15 10 15 5 0 7 -7 4 -15z m2576 10 c0 -3 -7
-16 -15 -29 -12 -18 -13 -33 -6 -72 10 -52 9 -60 -8 -49 -22 13 -8 155 15 155
8 0 14 -2 14 -5z m-3630 -35 c0 -11 -4 -20 -8 -20 -4 0 -13 -13 -19 -30 -6
-16 -16 -30 -22 -30 -16 0 -13 26 4 40 8 7 15 20 15 30 0 9 3 20 7 23 12 13
23 7 23 -13z m3750 5 c10 -12 10 -18 0 -31 -11 -13 -15 -13 -27 -1 -13 13 -8
47 7 47 4 0 13 -7 20 -15z m-2840 -1 c0 -8 -32 -33 -42 -34 -16 0 -7 29 10 33
27 7 32 7 32 1z m2788 -21 c-2 -23 -8 -29 -36 -31 -22 -2 -34 2 -38 12 -11 29
4 46 41 46 34 0 36 -2 33 -27z m118 -17 c-2 -63 -16 -70 -16 -8 0 29 4 52 9
52 5 0 8 -20 7 -44z m-3181 15 c-3 -6 -11 -11 -17 -11 -6 0 -6 6 2 15 14 17
26 13 15 -4z m2832 -28 c-3 -10 -5 -2 -5 17 0 19 2 27 5 18 2 -10 2 -26 0 -35z
m-2721 11 c-25 -18 -36 -18 -36 0 0 8 10 16 23 18 31 5 35 -1 13 -18z m1264
17 c0 -5 -12 -11 -27 -14 -16 -3 -35 -7 -43 -9 -8 -2 -16 2 -18 7 -1 6 12 13
30 16 51 10 58 10 58 0z m1361 -44 c-7 -7 -15 -6 -26 3 -16 13 -15 15 1 27 15
11 20 11 27 -3 6 -10 5 -20 -2 -27z m-2877 18 c-4 -8 -8 -15 -10 -15 -2 0 -4
7 -4 15 0 8 4 15 10 15 5 0 7 -7 4 -15z m104 -15 c-7 -11 -16 -20 -20 -20 -5
0 -8 9 -8 20 0 13 7 20 20 20 18 0 19 -2 8 -20z m1677 10 c3 -5 -2 -26 -11
-47 -16 -34 -18 -36 -22 -14 -8 46 15 90 33 61z m-1910 -10 c-3 -5 -11 -10
-16 -10 -6 0 -7 5 -4 10 3 6 11 10 16 10 6 0 7 -4 4 -10z m535 6 c0 -2 -7 -7
-16 -10 -8 -3 -12 -2 -9 4 6 10 25 14 25 6z m700 -5 c0 -12 -20 -25 -27 -18
-7 7 6 27 18 27 5 0 9 -4 9 -9z m-1277 -27 c-3 -9 -1 -19 5 -23 14 -8 -12 -51
-31 -51 -8 0 -8 3 1 12 16 16 15 28 -3 28 -18 0 -20 21 -3 38 18 18 39 15 31
-4z m147 6 c0 -13 -48 -36 -56 -27 -4 4 -1 13 6 22 14 17 50 20 50 5z m270 0
c0 -5 -5 -10 -11 -10 -5 0 -7 5 -4 10 3 6 8 10 11 10 2 0 4 -4 4 -10z m2022
-22 c-15 -15 -26 -4 -18 18 5 13 9 15 18 6 9 -9 9 -15 0 -24z m-2522 16 c0 -3
-10 -19 -22 -37 -21 -30 -68 -49 -68 -28 0 22 14 41 30 41 10 0 23 7 30 15 12
15 30 20 30 9z m1162 -19 c-6 -31 -20 -42 -28 -21 -8 21 2 46 19 46 10 0 13
-8 9 -25z m2005 11 c-4 -12 -85 -28 -104 -21 -7 2 -10 11 -7 19 7 17 117 19
111 2z m-3287 -11 c0 -8 -7 -15 -15 -15 -26 0 -18 20 13 29 1 1 2 -6 2 -14z
m3343 0 c4 -8 2 -17 -3 -20 -6 -4 -10 3 -10 14 0 25 6 27 13 6z m-1883 -14 c0
-12 -20 -25 -27 -18 -7 7 6 27 18 27 5 0 9 -4 9 -9z m1090 -22 c9 -31 -31 -67
-49 -45 -8 10 -7 21 5 45 18 36 35 36 44 0z m-2670 6 c-6 -8 -17 -13 -23 -12
-7 1 -13 -7 -13 -18 -1 -11 -2 -25 -3 -32 -1 -6 -15 -16 -32 -22 -40 -14 -62
-14 -54 -1 3 6 16 10 28 10 16 0 18 3 9 12 -21 21 35 76 82 77 15 1 16 -2 6
-14z m450 5 c-8 -5 -19 -10 -25 -10 -5 0 -3 5 5 10 8 5 20 10 25 10 6 0 3 -5
-5 -10z m740 -16 c0 -8 -4 -14 -10 -14 -5 0 -10 9 -10 21 0 11 5 17 10 14 6
-3 10 -13 10 -21z m-1100 -3 c-14 -27 -30 -35 -42 -23 -15 15 8 42 34 42 15 0
17 -3 8 -19z m660 -7 c0 -8 -5 -12 -10 -9 -6 4 -8 11 -5 16 9 14 15 11 15 -7z
m280 1 c0 -8 -9 -15 -20 -15 -22 0 -27 15 -7 23 21 9 27 7 27 -8z m1215 -28
c-18 -45 -33 -54 -37 -25 -2 14 6 32 20 46 31 30 36 24 17 -21z m-2100 3 c3
-5 1 -10 -4 -10 -6 0 -11 5 -11 10 0 6 2 10 4 10 3 0 8 -4 11 -10z m445 -14
c-8 -6 -20 -20 -26 -31 -6 -11 -21 -21 -33 -23 -31 -5 -27 26 7 41 15 6 33 18
41 25 7 7 16 10 20 7 3 -4 -1 -12 -9 -19z m262 -8 c-6 -6 -16 -7 -23 -3 -9 6
-7 12 7 22 21 15 34 -1 16 -19z m3058 10 c0 -4 -9 -8 -21 -8 -11 0 -18 4 -15
8 3 5 12 9 21 9 8 0 15 -4 15 -9z m120 1 c14 0 19 -3 13 -6 -21 -8 -15 -23 15
-35 l27 -12 -24 -4 c-18 -3 -30 3 -44 22 -10 14 -25 26 -32 26 -8 0 -17 5 -21
12 -5 8 0 9 17 5 13 -4 35 -7 49 -8z m170 -71 c0 -57 -3 -78 -10 -68 -13 20
-13 150 0 150 6 0 10 -34 10 -82z m-4155 62 c-3 -5 -13 -10 -21 -10 -8 0 -14
5 -14 10 0 6 9 10 21 10 11 0 17 -4 14 -10z m415 2 c0 -13 -12 -22 -22 -16
-10 6 -1 24 13 24 5 0 9 -4 9 -8z m258 -4 c-5 -15 -58 -24 -58 -10 0 15 12 22
38 22 14 0 22 -5 20 -12z m1238 -9 c3 -6 1 -16 -5 -22 -17 -17 -13 -27 9 -27
31 0 23 -17 -11 -24 -49 -9 -101 -7 -94 4 3 6 23 10 43 10 33 0 34 1 17 14
-19 14 -19 15 -1 35 21 24 32 26 42 10z m-1636 -9 c0 -5 -4 -10 -10 -10 -5 0
-10 -8 -10 -17 0 -34 -52 -68 -73 -47 -13 13 18 55 45 61 15 3 28 9 28 14 0 5
5 9 10 9 6 0 10 -4 10 -10z m-130 -20 c0 -5 -4 -10 -10 -10 -5 0 -10 5 -10 10
0 6 5 10 10 10 6 0 10 -4 10 -10z m240 2 c0 -11 -46 -32 -54 -25 -3 3 -1 12 5
20 13 14 49 18 49 5z m1210 -1 c0 -6 -5 -13 -11 -16 -7 -5 -5 -13 6 -25 13
-14 13 -19 2 -28 -8 -7 -17 -9 -20 -5 -4 3 -13 0 -22 -7 -9 -8 -15 -8 -15 -2
0 6 5 14 10 17 6 3 10 16 10 29 0 22 17 46 32 46 4 0 8 -4 8 -9z m-1581 -24
c-9 -7 -19 -24 -22 -38 -5 -18 -15 -28 -32 -31 -15 -3 -25 -1 -25 6 1 22 60
74 85 75 6 0 3 -5 -6 -12z m111 -5 c0 -15 -32 -52 -45 -52 -23 0 -28 20 -9 41
17 19 54 27 54 11z m-225 -22 c-14 -15 -20 -17 -26 -8 -5 8 -11 4 -18 -15 -9
-22 -17 -27 -45 -27 -27 0 -34 3 -30 15 4 8 16 15 29 15 13 0 25 6 28 14 3 8
16 16 29 19 49 9 52 8 33 -13z m1485 10 c0 -5 -4 -10 -10 -10 -5 0 -10 5 -10
10 0 6 5 10 10 10 6 0 10 -4 10 -10z m786 -7 c-2 -10 -10 -45 -16 -78 -16 -85
-20 -95 -35 -95 -20 0 -30 52 -11 62 8 5 20 35 27 68 8 40 16 60 26 60 9 0 12
-7 9 -17z m1934 -2 c0 -28 -21 -37 -36 -16 -16 22 -10 35 17 35 12 0 19 -7 19
-19z m-3750 -11 c-8 -6 -22 -10 -30 -10 -8 0 -4 6 10 13 27 15 44 12 20 -3z
m2603 -51 c-6 -6 -7 3 -4 23 4 28 6 29 9 9 2 -13 0 -27 -5 -32z m-1768 31 c-3
-5 -13 -10 -21 -10 -8 0 -12 5 -9 10 3 6 13 10 21 10 8 0 12 -4 9 -10z m168
-25 c-3 -8 -9 -15 -14 -15 -10 0 -12 24 -3 33 11 11 24 -3 17 -18z m-1493 -5
c-6 -11 -25 -22 -48 -25 -20 -4 -45 -9 -56 -12 -12 -3 -17 -1 -14 8 3 8 25 16
51 19 26 3 52 11 59 18 17 17 20 15 8 -8z m205 10 c-3 -5 -15 -10 -26 -10 -10
0 -19 5 -19 10 0 6 12 10 26 10 14 0 23 -4 19 -10z m933 -2 c-5 -16 -58 -24
-58 -9 0 8 13 13 53 20 5 0 7 -5 5 -11z m-158 -6 c0 -15 -24 -32 -47 -32 -16
0 -21 4 -16 16 3 8 12 13 19 10 7 -3 16 -1 19 4 7 12 25 13 25 2z m-915 -12
c-3 -5 -10 -10 -16 -10 -5 0 -9 5 -9 10 0 6 7 10 16 10 8 0 12 -4 9 -10z m625
6 c0 -3 -4 -8 -10 -11 -5 -3 -10 -1 -10 4 0 6 5 11 10 11 6 0 10 -2 10 -4z
m120 -13 c-1 -23 -18 -33 -41 -24 -18 7 -20 10 -9 14 13 5 41 14 48 16 1 1 2
-2 2 -6z m1918 -16 c3 -16 -32 -72 -46 -72 -11 0 -10 68 2 81 15 18 40 13 44
-9z m330 12 c-5 -16 -79 -40 -105 -34 -27 6 -30 32 -5 38 37 10 114 7 110 -4z
m-2535 -23 c-21 -28 -52 -50 -60 -42 -11 11 7 36 26 36 10 0 21 7 25 15 3 8
10 15 16 15 6 0 3 -11 -7 -24z m127 5 c0 -17 -18 -31 -41 -31 -16 0 -10 29 9
39 25 15 32 13 32 -8z m3300 -2 c-7 -11 -14 -18 -17 -15 -3 3 0 12 7 21 18 21
23 19 10 -6z m-3550 1 c0 -5 -5 -10 -11 -10 -5 0 -7 5 -4 10 3 6 8 10 11 10 2
0 4 -4 4 -10z m-161 -41 c-26 -34 -42 -39 -47 -15 -2 10 4 16 16 16 11 0 22 7
26 15 3 8 11 15 17 15 6 0 1 -14 -12 -31z m126 21 c7 -12 -16 -50 -32 -50 -20
0 -23 16 -7 38 16 24 29 28 39 12z m-220 -10 c-3 -5 -13 -10 -21 -10 -8 0 -12
5 -9 10 3 6 13 10 21 10 8 0 12 -4 9 -10z m2313 -2 c10 -10 8 -16 -9 -29 -18
-13 -29 -14 -60 -6 -46 11 -51 27 -10 27 17 0 33 5 36 10 8 14 28 13 43 -2z
m-2463 -38 c-30 -31 -55 -39 -55 -17 0 12 71 59 79 51 3 -2 -8 -18 -24 -34z
m790 30 c-3 -5 -12 -10 -18 -10 -7 0 -6 4 3 10 19 12 23 12 15 0z m2295 0 c0
-5 -5 -10 -11 -10 -5 0 -7 5 -4 10 3 6 8 10 11 10 2 0 4 -4 4 -10z m-2970 -19
c-1 -18 -31 -43 -45 -37 -14 5 -14 8 0 30 14 22 46 27 45 7z m1844 9 c17 -6
35 -6 52 0 23 9 25 8 22 -12 -2 -15 -11 -22 -28 -23 -14 -1 -42 -5 -62 -10
-33 -6 -38 -5 -38 12 0 10 5 24 12 31 14 14 11 14 42 2z m-1329 -10 c-3 -5
-12 -10 -18 -10 -7 0 -6 4 3 10 19 12 23 12 15 0z m1045 -14 c0 -2 3 -11 6
-20 4 -9 1 -16 -6 -16 -13 0 -39 -29 -40 -44 0 -4 11 -1 25 8 14 9 25 14 25
10 0 -3 12 1 26 11 l25 16 -5 -31 c-2 -18 -7 -34 -10 -37 -3 -3 -46 -8 -96
-11 l-90 -5 0 25 c0 38 25 55 48 34 10 -9 24 -16 30 -16 15 0 16 22 1 37 -13
13 15 43 42 43 10 0 19 -2 19 -4z m3071 -16 c21 0 38 -45 23 -60 -16 -16 -320
-16 -338 -1 -24 20 -19 31 11 31 14 0 63 7 107 15 97 17 146 23 164 18 8 -1
22 -3 33 -3z m-4536 -10 c-3 -5 -13 -10 -21 -10 -8 0 -12 5 -9 10 3 6 13 10
21 10 8 0 12 -4 9 -10z m1175 1 c0 -5 9 -11 20 -14 12 -3 20 -14 20 -27 0 -19
1 -20 16 -6 8 9 17 16 19 16 4 0 -5 -61 -10 -67 -1 -2 -41 -6 -88 -9 -98 -7
-103 -3 -70 59 13 25 18 28 21 15 5 -26 15 -22 34 12 16 28 38 40 38 21z m889
-30 c-1 -38 -23 -154 -31 -167 -11 -16 -54 -23 -201 -30 l-129 -6 4 22 c3 20
10 23 73 26 39 3 100 9 137 15 73 12 75 13 93 109 4 19 11 43 16 52 13 25 39
11 38 -21z m-2114 19 c-3 -5 -11 -10 -16 -10 -6 0 -7 5 -4 10 3 6 11 10 16 10
6 0 7 -4 4 -10z m-217 -21 c-7 -5 -22 -9 -33 -9 -19 1 -19 1 -2 15 11 7 26 11
34 8 12 -5 12 -7 1 -14z m97 11 c-3 -5 -11 -10 -16 -10 -6 0 -7 5 -4 10 3 6
11 10 16 10 6 0 7 -4 4 -10z m1809 -11 c-6 -11 200 -5 229 7 11 4 17 1 17 -9
0 -10 -14 -17 -42 -21 -64 -9 -238 -18 -238 -12 0 16 24 54 32 50 4 -3 6 -10
2 -15z m-638 -19 c-3 -16 -9 -43 -12 -59 -10 -49 -43 -71 -117 -78 -37 -3 -67
-3 -67 0 0 3 7 32 15 63 23 88 32 95 159 102 26 2 28 0 22 -28z m3147 15 c-6
-18 -34 -16 -41 3 -2 7 6 12 22 12 19 0 24 -4 19 -15z m-3378 -12 c-3 -10 -11
-38 -17 -63 -21 -91 -15 -87 -125 -94 -54 -3 -181 -8 -283 -11 -102 -3 -238
-8 -302 -11 -73 -4 -118 -3 -118 3 0 32 53 151 73 165 6 3 17 4 25 0 12 -4 10
-7 -6 -13 -12 -5 -22 -16 -22 -26 0 -12 3 -14 8 -6 10 15 92 23 116 11 10 -6
21 -6 25 -2 3 5 26 10 51 10 45 1 174 11 260 19 25 2 99 6 164 9 66 3 124 10
130 16 16 16 29 12 21 -7z m-645 -13 c-8 -5 -19 -10 -25 -10 -5 0 -3 5 5 10 8
5 20 10 25 10 6 0 3 -5 -5 -10z m-366 -39 c-5 -3 -16 -26 -25 -51 -13 -37 -21
-46 -44 -48 l-28 -4 31 32 c30 29 30 32 14 49 -10 11 -21 14 -27 9 -6 -6 -5
-12 3 -17 17 -10 6 -36 -25 -56 -36 -24 -39 -12 -11 42 21 42 30 49 69 59 28
7 45 7 48 1 2 -5 0 -12 -5 -16z m131 -54 c-33 -82 -33 -82 -75 -88 -22 -3 -43
-2 -46 3 -9 14 16 106 32 119 8 6 14 18 14 25 0 8 7 14 16 14 13 0 14 -3 5
-14 -10 -12 -7 -15 18 -14 30 1 45 18 16 18 -31 0 -13 17 19 18 l34 1 -33 -82z
m3070 52 c-9 -17 -19 -29 -22 -26 -5 5 25 57 33 57 3 0 -3 -14 -11 -31z m-576
-64 c-8 -7 -55 -16 -112 -20 -89 -6 -98 -5 -95 11 3 17 12 18 130 25 37 2 49
7 54 22 6 18 7 18 21 -3 13 -18 13 -24 2 -35z m291 36 c0 -21 -14 -27 -70 -31
-81 -6 -145 -3 -149 5 -5 14 62 25 133 23 38 -1 61 3 64 10 6 19 22 14 22 -7z
m90 1 c0 -13 -12 -22 -22 -16 -10 6 -1 24 13 24 5 0 9 -4 9 -8z m-1103 -62
c19 0 16 -38 -4 -44 -10 -3 -41 -5 -69 -5 -28 1 -76 -2 -107 -6 -57 -7 -57 -7
-57 19 0 21 5 26 28 27 15 1 34 3 42 4 8 1 38 3 67 4 44 1 53 4 59 24 l7 22
10 -22 c6 -13 16 -23 24 -23z m-273 -14 c19 7 21 -6 4 -28 -17 -21 -212 -36
-223 -18 -13 21 11 31 90 37 55 4 78 10 83 21 4 13 7 12 17 -2 7 -9 19 -14 29
-10z m-264 -21 c16 10 12 -17 -9 -51 -19 -31 -21 -32 -108 -36 -48 -3 -92 -1
-97 3 -19 16 8 29 61 29 59 0 113 27 113 57 0 12 3 13 15 3 8 -6 19 -9 25 -5z
m1190 -15 c0 -5 -7 -10 -16 -10 -8 0 -12 5 -9 10 3 6 10 10 16 10 5 0 9 -4 9
-10z m50 0 c0 -5 -9 -10 -21 -10 -11 0 -17 5 -14 10 3 6 13 10 21 10 8 0 14
-4 14 -10z m-240 -12 c0 -5 -12 -8 -27 -9 -16 0 -46 -2 -68 -4 -82 -8 -288
-14 -283 -9 10 9 54 14 188 20 74 3 136 6 137 7 5 6 53 1 53 -5z m60 2 c0 -5
-12 -10 -26 -10 -14 0 -23 4 -19 10 3 6 15 10 26 10 10 0 19 -4 19 -10z m89 6
c-2 -2 -21 -6 -42 -10 -27 -5 -37 -4 -32 3 3 6 22 11 42 11 20 0 34 -2 32 -4z
m-541 -31 c-10 -8 -101 -14 -93 -6 11 11 64 19 83 13 7 -3 12 -6 10 -7z m-108
-6 c0 -9 -9 -10 -125 -14 -62 -2 -286 -14 -304 -17 -26 -3 -54 3 -45 11 5 6
101 13 214 16 113 4 206 8 207 8 7 7 53 3 53 -4z m-1825 -18 c0 -11 -18 -15
-80 -17 -44 -2 -99 -6 -122 -9 -38 -6 -43 -4 -43 14 0 26 2 26 133 26 91 0
112 -3 112 -14z m3135 -5 c0 -3 -4 -8 -10 -11 -5 -3 -10 -1 -10 4 0 6 5 11 10
11 6 0 10 -2 10 -4z m-2930 -16 c0 -14 -18 -21 -63 -26 -23 -3 -48 -7 -55 -9
-16 -6 -29 25 -14 34 17 10 132 11 132 1z m2940 -20 c0 -12 -57 -12 -85 0 -15
6 -6 9 33 9 28 1 52 -3 52 -9z m1006 -12 c4 -5 -6 -8 -22 -6 -15 2 -29 8 -31
14 -5 14 44 6 53 -8z m-2866 2 c0 -5 -8 -10 -17 -10 -10 0 -47 -3 -83 -5 -122
-9 -400 -12 -400 -5 0 4 109 12 243 17 133 5 245 10 250 11 4 1 7 -2 7 -8z
m-514 -19 c-4 -5 -55 -10 -114 -10 -59 -1 -201 -3 -316 -6 -115 -2 -206 -2
-203 2 4 3 93 8 199 12 362 11 440 12 434 2z m2714 -4 c0 -2 -15 -16 -32 -33
l-33 -29 29 33 c28 30 36 37 36 29z"/>
<path d="M3875 7463 c-11 -40 -6 -154 8 -178 6 -11 10 -23 9 -27 -2 -9 114 -5
123 4 14 14 -7 28 -42 28 -50 0 -62 21 -63 106 0 48 -4 75 -14 83 -11 9 -15 6
-21 -16z"/>
<path d="M3892 7188 c-9 -33 -8 -59 3 -154 7 -57 18 -64 85 -54 29 4 36 10 41
35 12 55 9 125 -6 162 -15 35 -16 35 -30 17 -14 -18 -14 -18 -15 4 0 18 -5 22
-35 22 -30 0 -35 -4 -43 -32z m94 -89 c1 -28 0 -48 -4 -45 -3 4 -8 30 -10 59
-2 29 -1 49 3 45 4 -4 9 -30 11 -59z"/>
<path d="M3914 6924 c-12 -18 -18 -48 -18 -100 -1 -41 2 -74 5 -74 4 0 10 -11
13 -25 4 -14 12 -26 19 -26 61 -6 99 -3 109 8 15 18 7 24 -41 30 -22 3 -46 12
-52 19 -15 18 -3 48 15 41 8 -3 17 -1 20 6 3 8 5 8 5 -2 1 -11 4 -11 18 0 15
12 16 12 9 -1 -7 -11 -4 -10 9 2 28 26 5 47 -45 42 -34 -3 -40 -1 -40 15 0 40
11 51 51 51 32 0 39 3 39 20 0 17 -7 20 -50 20 -42 0 -52 -4 -66 -26z"/>
<path d="M3947 6672 c-34 -37 -41 -102 -21 -200 5 -27 10 -33 25 -29 11 3 19
0 19 -8 0 -34 67 -25 81 12 18 47 9 145 -17 198 -13 28 -22 43 -20 35 3 -12
-5 -16 -29 -16 -19 0 -31 4 -29 8 3 5 10 5 16 2 7 -4 8 -2 4 4 -9 15 -10 15
-29 -6z m71 -136 c0 -63 -14 -42 -16 27 -2 36 1 48 7 37 5 -8 10 -36 9 -64z"/>
<path d="M3983 6382 c-18 -3 -23 -10 -23 -36 0 -18 6 -41 14 -51 13 -19 15
-18 23 13 14 56 28 35 31 -48 l3 -80 -40 0 c-22 0 -42 4 -45 9 -3 5 -8 43 -10
84 -4 78 -12 105 -27 90 -10 -10 -14 -149 -4 -185 8 -31 50 -49 95 -41 14 3
31 6 38 7 24 4 32 30 31 101 -2 101 -9 127 -39 135 -14 3 -35 4 -47 2z"/>
<path d="M7620 6289 c0 -5 5 -7 10 -4 6 3 10 8 10 11 0 2 -4 4 -10 4 -5 0 -10
-5 -10 -11z"/>
<path d="M7643 6265 c0 -8 4 -12 9 -9 11 7 10 -3 -3 -29 -9 -18 -9 -20 1 -10
10 9 19 8 39 -5 14 -9 23 -12 19 -7 -4 4 -2 15 5 24 10 14 10 14 -5 3 -19 -15
-38 -8 -38 12 0 8 -6 19 -13 25 -10 8 -14 7 -14 -4z"/>
<path d="M7750 6230 c-9 -6 -10 -10 -3 -10 6 0 15 5 18 10 8 12 4 12 -15 0z"/>
<path d="M7722 6206 c2 -1 10 -7 19 -14 13 -10 18 -10 22 0 3 8 -5 14 -20 14
-13 1 -23 1 -21 0z"/>
<path d="M7767 6171 c-10 -14 -10 -14 4 -4 10 9 19 9 26 2 6 -6 10 -5 10 4 0
19 -25 17 -40 -2z"/>
<path d="M7885 6120 c-3 -5 1 -10 10 -10 9 0 13 5 10 10 -3 6 -8 10 -10 10 -2
0 -7 -4 -10 -10z"/>
<path d="M7765 6110 c-3 -5 -1 -10 4 -10 6 0 11 5 11 10 0 6 -2 10 -4 10 -3 0
-8 -4 -11 -10z"/>
<path d="M8410 4672 c0 -18 166 -87 175 -72 7 11 3 13 -75 43 -36 14 -73 28
-82 32 -10 4 -18 3 -18 -3z"/>
<path d="M8422 4588 c5 -14 157 -73 165 -64 10 9 4 12 -85 45 -46 16 -82 25
-80 19z"/>
<path d="M8422 4550 c3 -10 140 -70 161 -70 4 0 7 6 7 13 0 6 -33 22 -73 35
-39 13 -78 26 -86 29 -8 3 -12 0 -9 -7z"/>
<path d="M6080 3320 c0 -5 5 -10 10 -10 6 0 10 5 10 10 0 6 -4 10 -10 10 -5 0
-10 -4 -10 -10z"/>
<path d="M6168 3323 c7 -3 16 -2 19 1 4 3 -2 6 -13 5 -11 0 -14 -3 -6 -6z"/>
<path d="M6228 2613 c6 -2 18 -2 25 0 6 3 1 5 -13 5 -14 0 -19 -2 -12 -5z"/>
<path d="M8118 2825 c-2 -3 -27 -9 -54 -15 -27 -5 -60 -12 -74 -15 -84 -19
-188 -40 -245 -49 -16 -2 -50 -9 -75 -14 -125 -28 -205 -44 -305 -62 -118 -22
-187 -40 -195 -51 -3 -4 -5 -36 -5 -71 0 -51 3 -62 15 -60 8 2 54 5 102 7 47
2 91 5 96 8 5 4 58 16 118 27 60 11 123 27 139 35 29 14 103 29 375 80 158 29
195 39 194 51 0 5 -4 37 -8 72 -9 61 -9 62 -41 62 -17 0 -34 -2 -37 -5z m-187
-139 c-5 -11 -11 -20 -15 -18 -3 1 -17 2 -31 2 -14 0 -25 4 -25 9 0 20 30 38
54 34 20 -4 23 -9 17 -27z m-248 -30 c24 -19 22 -23 -19 -31 -44 -8 -49 -3
-32 24 15 24 26 26 51 7z m-245 -58 c-2 -13 -7 -23 -13 -23 -5 0 -11 10 -13
23 -2 15 2 22 13 22 11 0 15 -7 13 -22z"/>
<path d="M7200 2360 c0 -5 7 -7 15 -4 8 4 15 8 15 10 0 2 -7 4 -15 4 -8 0 -15
-4 -15 -10z"/>
<path d="M7155 2350 c4 -6 11 -8 16 -5 14 9 11 15 -7 15 -8 0 -12 -5 -9 -10z"/>
<path d="M7760 2240 c0 -10 9 -22 21 -25 28 -9 29 -4 2 22 -21 21 -23 21 -23
3z"/>
<path d="M6660 1814 c-52 -8 -101 -17 -107 -19 -14 -5 -19 -95 -5 -95 4 0 54
7 112 15 90 13 108 18 128 40 12 15 22 32 22 40 0 14 -31 36 -47 34 -4 -1 -51
-7 -103 -15z m105 -14 c3 -5 3 -16 -2 -22 -4 -7 -8 -17 -8 -22 0 -20 -26 -16
-34 6 -8 19 -10 20 -10 4 -1 -14 -6 -17 -26 -12 -15 4 -25 2 -25 -4 0 -6 -6
-10 -12 -8 -7 1 -24 -4 -37 -11 -20 -11 -26 -11 -39 2 -15 16 -10 47 8 47 5 0
10 -9 10 -20 0 -11 5 -20 10 -20 6 0 10 9 10 20 0 12 7 20 18 21 66 4 97 10
100 19 5 13 29 13 37 0z"/>
<path d="M6467 1753 c-4 -3 -7 -13 -7 -22 1 -13 3 -13 11 2 11 19 8 33 -4 20z"/>
<path d="M6501 1744 c0 -11 3 -14 6 -6 3 7 2 16 -1 19 -3 4 -6 -2 -5 -13z"/>
<path d="M6406 1734 c-8 -21 -4 -25 14 -14 11 7 12 12 4 20 -8 8 -13 7 -18 -6z"/>
<path d="M6342 1719 c-12 -19 -12 -20 10 -14 29 9 31 11 23 24 -9 16 -19 13
-33 -10z"/>
<path d="M6265 1712 c-3 -8 -2 -18 1 -21 4 -3 9 -1 11 6 2 7 11 9 19 6 8 -3
14 -1 14 5 0 17 -38 21 -45 4z"/>
<path d="M5640 1260 c0 -5 5 -10 10 -10 6 0 10 5 10 10 0 6 -4 10 -10 10 -5 0
-10 -4 -10 -10z"/>
<path d="M5070 1180 c0 -5 4 -10 9 -10 5 0 18 -3 28 -6 16 -6 16 -5 -2 9 -23
19 -35 21 -35 7z"/>
<path d="M4026 1042 c-3 -5 1 -9 9 -9 8 0 15 4 15 9 0 4 -4 8 -9 8 -6 0 -12
-4 -15 -8z"/>
<path d="M3875 1030 c-4 -6 7 -10 24 -10 17 0 31 5 31 10 0 6 -11 10 -24 10
-14 0 -28 -4 -31 -10z"/>
<path d="M3750 1070 c0 -5 7 -10 16 -10 8 0 12 5 9 10 -3 6 -10 10 -16 10 -5
0 -9 -4 -9 -10z"/>
<path d="M3713 1034 c-10 -26 38 -47 53 -22 4 6 -1 17 -11 25 -24 17 -34 17
-42 -3z"/>
<path d="M7388 6543 c7 -3 16 -2 19 1 4 3 -2 6 -13 5 -11 0 -14 -3 -6 -6z"/>
<path d="M7370 6521 c0 -6 4 -13 10 -16 6 -3 7 1 4 9 -7 18 -14 21 -14 7z"/>
<path d="M7184 6483 c-30 -45 -27 -62 12 -60 33 2 33 2 13 23 -10 11 -16 24
-12 28 7 7 14 36 8 36 -1 0 -11 -12 -21 -27z m8 -37 c7 4 8 2 4 -5 -9 -13 -26
-5 -25 12 0 9 2 8 6 -1 2 -6 10 -9 15 -6z"/>
<path d="M7400 6506 c0 -2 8 -10 18 -17 15 -13 16 -12 3 4 -13 16 -21 21 -21
13z"/>
<path d="M7373 6448 c-11 -19 -13 -39 -1 -32 5 3 7 9 4 12 -3 3 -1 11 5 19 6
7 9 13 6 13 -3 0 -9 -6 -14 -12z"/>
<path d="M8604 4356 c-3 -8 -11 -14 -17 -12 -7 1 -9 1 -4 -1 4 -3 7 -9 7 -14
0 -6 -5 -7 -12 -3 -7 4 -8 3 -4 -5 14 -21 40 -8 41 22 2 30 -3 35 -11 13z"/>
<path d="M8265 2630 c-4 -6 1 -23 12 -38 l18 -27 3 23 c6 41 -16 69 -33 42z"/>
<path d="M8311 2484 c0 -11 3 -14 6 -6 3 7 2 16 -1 19 -3 4 -6 -2 -5 -13z"/>
<path d="M8390 1980 c0 -8 5 -22 10 -30 9 -13 10 -13 10 0 0 8 -5 22 -10 30
-9 13 -10 13 -10 0z"/>
<path d="M8446 1570 c10 -84 32 -188 33 -160 1 37 -25 199 -33 207 -4 4 -4
-17 0 -47z"/>
<path d="M508 1403 c7 -3 16 -2 19 1 4 3 -2 6 -13 5 -11 0 -14 -3 -6 -6z"/>
<path d="M8470 1370 c0 -28 12 -60 22 -60 6 0 7 11 3 28 -7 31 -25 54 -25 32z"/>
</g>
</svg>
